<svg xmlns="http://www.w3.org/2000/svg" viewBox="0 0 80 80" width="80px" height="80px">
    <path style="line-height:normal;text-indent:0;text-align:start;text-decoration-line:none;text-decoration-style:solid;text-decoration-color:#000;text-transform:none;block-progression:tb;isolation:auto;mix-blend-mode:normal" d="M 28 14 C 26.35503 14 25 15.35503 25 17 L 25 20 C 25 20.56503 24.56503 21 24 21 L 8 21 C 6.3550302 21 5 22.35503 5 24 L 5 65 C 5 66.64497 6.3550302 68 8 68 L 72 68 C 73.64497 68 75 66.64497 75 65 L 75 24 C 75 22.35503 73.64497 21 72 21 L 56 21 C 55.43497 21 55 20.56503 55 20 L 55 17 C 55 15.35503 53.64497 14 52 14 L 28 14 z M 28 16 L 52 16 C 52.56503 16 53 16.43497 53 17 L 53 20 C 53 21.64497 54.35503 23 56 23 L 72 23 C 72.56503 23 73 23.43497 73 24 L 73 65 C 73 65.56503 72.56503 66 72 66 L 8 66 C 7.4349698 66 7 65.56503 7 65 L 7 24 C 7 23.43497 7.4349698 23 8 23 L 24 23 C 25.64497 23 27 21.64497 27 20 L 27 17 C 27 16.43497 27.43497 16 28 16 z M 40.095703 23 C 29.08499 23 20.189453 31.942678 20.189453 43 C 20.189453 54.057385 29.085939 63 40.095703 63 C 51.106416 63 60 54.057322 60 43 C 60 31.942678 51.106416 23 40.095703 23 z M 40.095703 25 C 50.02699 25 58 33.011322 58 43 C 58 52.988678 50.02699 61 40.095703 61 C 30.165468 61 22.189453 52.988615 22.189453 43 C 22.189453 33.011322 30.164416 25 40.095703 25 z M 65.015625 27 C 62.823899 27 61.029297 28.805408 61.029297 31 C 61.029297 33.194592 62.823899 35 65.015625 35 C 67.207351 35 69 33.194592 69 31 C 69 28.805408 67.207351 27 65.015625 27 z M 40.072266 28.072266 A 1.0001 1.0001 0 0 0 39.958984 28.078125 C 31.77126 28.140103 25.078125 34.82997 25.078125 43 C 25.078125 51.208129 31.832457 57.927734 40.072266 57.927734 C 48.236609 57.927734 54.934455 51.328159 55.056641 43.222656 A 1.0001 1.0001 0 0 0 54.068359 42 A 1.0001 1.0001 0 0 0 53.0625 43.123047 C 52.994805 50.178171 47.184668 55.927734 40.072266 55.927734 C 32.918075 55.927734 27.078125 50.111871 27.078125 43 C 27.078125 35.888129 32.918075 30.072266 40.072266 30.072266 A 1.0001 1.0001 0 1 0 40.072266 28.072266 z M 44.390625 28.755859 L 43.589844 29.15625 L 43.431641 30.039062 L 44.042969 30.693359 L 44.390625 30.755859 L 45.191406 30.353516 L 45.349609 29.470703 L 44.736328 28.816406 L 44.390625 28.755859 z M 65.015625 29 C 66.121039 29 67 29.880884 67 31 C 67 32.119116 66.121039 33 65.015625 33 C 63.910211 33 63.029297 32.119116 63.029297 31 C 63.029297 29.880884 63.910211 29 65.015625 29 z M 48.275391 30.742188 L 47.474609 31.144531 L 47.316406 32.027344 L 47.927734 32.681641 L 48.275391 32.742188 L 49.076172 32.341797 L 49.234375 31.458984 L 48.621094 30.804688 L 48.275391 30.742188 z M 51.373047 33.816406 L 50.572266 34.216797 L 50.414062 35.099609 L 51.025391 35.753906 L 51.373047 35.816406 L 52.173828 35.414062 L 52.332031 34.533203 L 51.71875 33.878906 L 51.373047 33.816406 z M 53.373047 37.693359 L 52.572266 38.095703 L 52.414062 38.976562 L 53.025391 39.630859 L 53.373047 39.693359 L 54.173828 39.292969 L 54.332031 38.410156 L 53.71875 37.755859 L 53.373047 37.693359 z M 11 60 A 1 1 0 0 0 10 61 A 1 1 0 0 0 11 62 A 1 1 0 0 0 12 61 A 1 1 0 0 0 11 60 z M 15 60 A 1 1 0 0 0 14 61 A 1 1 0 0 0 15 62 A 1 1 0 0 0 16 61 A 1 1 0 0 0 15 60 z M 19 60 A 1 1 0 0 0 18 61 A 1 1 0 0 0 19 62 A 1 1 0 0 0 20 61 A 1 1 0 0 0 19 60 z M 23 60 A 1 1 0 0 0 22 61 A 1 1 0 0 0 23 62 A 1 1 0 0 0 24 61 A 1 1 0 0 0 23 60 z M 57 60 A 1 1 0 0 0 56 61 A 1 1 0 0 0 57 62 A 1 1 0 0 0 58 61 A 1 1 0 0 0 57 60 z M 61 60 A 1 1 0 0 0 60 61 A 1 1 0 0 0 61 62 A 1 1 0 0 0 62 61 A 1 1 0 0 0 61 60 z M 65 60 A 1 1 0 0 0 64 61 A 1 1 0 0 0 65 62 A 1 1 0 0 0 66 61 A 1 1 0 0 0 65 60 z M 69 60 A 1 1 0 0 0 68 61 A 1 1 0 0 0 69 62 A 1 1 0 0 0 70 61 A 1 1 0 0 0 69 60 z"/>
</svg>
